<svg xmlns="http://www.w3.org/2000/svg"  viewBox="0 0 48 48" width="96px" height="96px" fill-rule="evenodd" clip-rule="evenodd"><polygon fill="#f55376" points="5,7 6,6 14.5,6 15.5,7 18.5,7 19.5,6 20.124,6 21,5 26.851,5 26,6 27.5,6 28,6.75 29.75,6.5 30.25,5 37.25,5.5 37.75,6.25 38.514,5.489 42,6 43,6.971 43,8.25 42,9.25 43,13.5 43,17.5 42,18.25 42,19 41,20.25 42,22 42,26 41,27.25 43,26.507 43,42 39,41 39.5,41.75 38,42 34,41.5 33.5,41 32.5,42 27,42 25,43 22.25,42 21.5,43 19.75,41 18.75,42 16,41 14,42 9,42 5,41 5,35.5 6,33.5 6,29.5 5,28.5 5,25 6,24 6,22.5 5,22 5,20.75 6,19.5 5,16.5"/><polygon fill="#fac8d5" fill-rule="evenodd" points="12.3,27 20,35.333 12.85,37 9,33.667" clip-rule="evenodd"/><polygon fill="#fac8d5" fill-rule="evenodd" points="32.622,11 36,12.857 34.874,19 26.992,13.857" clip-rule="evenodd"/><path fill="#fac8d5" fill-rule="evenodd" d="M12,11l3.5,2.5l0.5,1l1-0.25l22,15.167	C38.837,29.77,36.321,37,36.321,37h-3.884L9,12L12,11z" clip-rule="evenodd"/></svg>